<?xml version="1.0" standalone="no"?>
<!DOCTYPE svg PUBLIC "-//W3C//DTD SVG 20010904//EN"
 "http://www.w3.org/TR/2001/REC-SVG-20010904/DTD/svg10.dtd">
<svg version="1.0" xmlns="http://www.w3.org/2000/svg"
 width="768.000000pt" height="768.000000pt" viewBox="0 0 768.000000 768.000000"
 preserveAspectRatio="xMidYMid meet">
<metadata>
Created by potrace 1.14, written by Peter Selinger 2001-2017
</metadata>
<g transform="translate(0.000000,768.000000) scale(0.100000,-0.100000)"
fill="#000000" stroke="none">
<path d="M2374 6390 c-354 -37 -675 -142 -971 -318 -185 -110 -314 -211 -483
-381 -228 -229 -349 -398 -490 -686 -279 -567 -343 -1206 -184 -1837 40 -160
101 -324 184 -493 141 -287 261 -457 490 -686 169 -170 298 -271 483 -381 263
-156 545 -256 862 -305 154 -24 508 -24 660 1 295 47 594 151 836 291 l46 27
83 -46 c244 -136 516 -228 800 -272 160 -25 511 -25 665 0 647 104 1188 434
1589 969 520 696 651 1666 340 2506 -224 603 -676 1107 -1239 1382 -218 106
-437 174 -690 216 -153 24 -504 24 -665 -1 -282 -44 -557 -137 -794 -268 l-89
-50 -46 27 c-238 137 -524 239 -806 286 -137 23 -449 33 -581 19z m2854 -321
c387 -42 767 -200 1072 -446 93 -76 262 -245 335 -338 266 -335 438 -756 484
-1187 14 -125 14 -391 0 -516 -47 -437 -223 -862 -497 -1203 -72 -89 -242
-258 -332 -330 -356 -285 -819 -449 -1265 -449 -953 0 -1792 680 -2040 1654
-54 214 -69 342 -69 586 0 244 15 372 69 586 210 823 846 1450 1640 1615 175
36 424 48 603 28z"/>
</g>
</svg>
